<svg xmlns="http://www.w3.org/2000/svg" viewBox="0 0 100 100">
  <defs>
    <linearGradient id="g" x1="0%" y1="0%" x2="100%" y2="100%">
      <stop offset="0%" stop-color="#3b82f6"/>
      <stop offset="100%" stop-color="#1d4ed8"/>
    </linearGradient>
  </defs>
  <rect width="100" height="100" rx="22" fill="url(#g)"/>
  <path d="M28 30c0-3.3 2.7-6 6-6h4v52h-4c-3.3 0-6-2.7-6-6V30z" fill="#60a5fa" opacity="0.6"/>
  <path d="M38 24h28c3.3 0 6 2.7 6 6v40c0 3.3-2.7 6-6 6H38V24z" fill="#fff"/>
  <circle cx="58" cy="40" r="7" fill="#3b82f6"/>
  <path d="M46 56c0-6.6 5.4-12 12-12s12 5.4 12 12" fill="none" stroke="#3b82f6" stroke-width="5" stroke-linecap="round"/>
  <rect x="44" y="32" width="28" height="4" rx="2" fill="#e5e7eb"/>
</svg>